# File exported by Houdini 19.0.589 (www.sidefx.com)
# 32 points
# 112 vertices
# 28 primitives
# Bounds: [-0.629999995, 0.119999975, 0.14806661] to [0.420933366, 0.319999993, 0.479999989]
g 
v 0.420933366 0.119999975 0.479999989 0.467000008 0.191470012 0
v 0.420933366 0.319999993 0.479999989 0.467000008 0.191470012 0
v 0.254266679 0.119999975 0.479999989 0.467000008 0.191470012 0
v 0.254266679 0.319999993 0.479999989 0.467000008 0.191470012 0
v 0.420933366 0.119999975 0.478333324 0.467000008 0.191470012 0
v 0.420933366 0.319999993 0.478333324 0.467000008 0.191470012 0
v 0.254266679 0.319999993 0.478333324 0.467000008 0.191470012 0
v 0.254266679 0.119999975 0.478333324 0.467000008 0.191470012 0
v 0.41260004 0.128333315 0.478333324 0.467000008 0.191470012 0
v 0.41260004 0.311666638 0.478333324 0.467000008 0.191470012 0
v 0.262600005 0.311666638 0.478333324 0.467000008 0.191470012 0
v 0.262600005 0.128333315 0.478333324 0.467000008 0.191470012 0
v 0.410933375 0.12999998 0.47966668 1 1 1
v 0.410933375 0.309999973 0.47966668 1 1 1
v 0.26426667 0.309999973 0.47966668 1 1 1
v 0.26426667 0.12999998 0.47966668 1 1 1
v -0.629999995 0.119999975 0.314733267 0.467000008 0.191470012 0
v -0.629999995 0.319999993 0.314733267 0.467000008 0.191470012 0
v -0.629999995 0.119999975 0.14806661 0.467000008 0.191470012 0
v -0.629999995 0.319999993 0.14806661 0.467000008 0.191470012 0
v -0.62833333 0.119999975 0.314733267 0.467000008 0.191470012 0
v -0.62833333 0.319999993 0.314733267 0.467000008 0.191470012 0
v -0.62833333 0.319999993 0.14806661 0.467000008 0.191470012 0
v -0.62833333 0.119999975 0.14806661 0.467000008 0.191470012 0
v -0.62833333 0.128333315 0.306399941 0.467000008 0.191470012 0
v -0.62833333 0.311666638 0.306399941 0.467000008 0.191470012 0
v -0.62833333 0.311666638 0.156399935 0.467000008 0.191470012 0
v -0.62833333 0.128333315 0.156399935 0.467000008 0.191470012 0
v -0.629666626 0.12999998 0.304733276 1 1 1
v -0.629666626 0.309999973 0.304733276 1 1 1
v -0.629666626 0.309999973 0.158066601 1 1 1
v -0.629666626 0.12999998 0.158066601 1 1 1
vn 0 0 1
vn 0 0 1
vn 0 0 1
vn 0 0 1
vn 1 0 0
vn 1 0 0
vn 1 0 0
vn 1 0 0
vn 0 1 0
vn 0 1 0
vn 0 1 0
vn 0 1 0
vn -1 0 0
vn -1 0 0
vn -1 0 0
vn -1 0 0
vn 0 -1 0
vn 0 -1 0
vn -0 -1 0
vn 0 -1 0
vn 0 0 -1
vn -0.0917305872 0.0917305648 -0.99154979
vn -0.0917305872 -0.0917305648 -0.99154979
vn 0 0 -1
vn 0 0 -1
vn -0.0917305872 -0.0917305648 -0.99154979
vn 0.0917305872 -0.0917305648 -0.99154979
vn 0 0 -1
vn 0 0 -1
vn 0.0917305872 -0.0917305648 -0.99154979
vn 0.0917305872 0.0917305648 -0.99154979
vn 0 0 -1
vn 0 0 -1
vn 0.0917305872 0.0917305648 -0.99154979
vn -0.0917305872 0.0917305648 -0.99154979
vn 0 0 -1
vn -0.256955415 0.256955415 -0.931637168
vn 0.256955415 0.256955415 -0.931637168
vn 0.256955415 -0.256955415 -0.931637228
vn -0.256955415 -0.256955415 -0.931637168
vn -0.0917305872 0.0917305648 -0.99154979
vn -0.256955415 0.256955415 -0.931637168
vn -0.256955415 -0.256955415 -0.931637168
vn -0.0917305872 -0.0917305648 -0.99154979
vn -0.0917305872 -0.0917305648 -0.99154979
vn -0.256955415 -0.256955415 -0.931637168
vn 0.256955415 -0.256955415 -0.931637228
vn 0.0917305872 -0.0917305648 -0.99154979
vn 0.0917305872 -0.0917305648 -0.99154979
vn 0.256955415 -0.256955415 -0.931637228
vn 0.256955415 0.256955415 -0.931637168
vn 0.0917305872 0.0917305648 -0.99154979
vn 0.0917305872 0.0917305648 -0.99154979
vn 0.256955415 0.256955415 -0.931637168
vn -0.256955415 0.256955415 -0.931637168
vn -0.0917305872 0.0917305648 -0.99154979
vn -1 0 0
vn -1 0 0
vn -1 0 0
vn -1 0 0
vn 0 0 1
vn 0 0 1
vn 0 0 1
vn 0 0 1
vn 0 1 0
vn 0 1 0
vn 0 1 0
vn 0 1 0
vn 0 0 -1
vn 0 0 -1
vn 0 0 -1
vn 0 0 -1
vn 0 -1 0
vn 0 -1 0
vn -0 -1 0
vn 0 -1 0
vn 1 0 0
vn 0.99154979 0.0917305648 -0.0917305872
vn 0.99154979 -0.0917305648 -0.0917305872
vn 1 0 0
vn 1 0 0
vn 0.99154979 -0.0917305648 -0.0917305872
vn 0.99154979 -0.0917305648 0.0917305872
vn 1 0 0
vn 1 0 0
vn 0.99154979 -0.0917305648 0.0917305872
vn 0.99154979 0.0917305648 0.0917305872
vn 1 0 0
vn 1 0 0
vn 0.99154979 0.0917305648 0.0917305872
vn 0.99154979 0.0917305648 -0.0917305872
vn 1 0 0
vn 0.931637168 0.256955415 -0.256955415
vn 0.931637168 0.256955415 0.256955415
vn 0.931637228 -0.256955415 0.256955415
vn 0.931637168 -0.256955415 -0.256955415
vn 0.99154979 0.0917305648 -0.0917305872
vn 0.931637168 0.256955415 -0.256955415
vn 0.931637168 -0.256955415 -0.256955415
vn 0.99154979 -0.0917305648 -0.0917305872
vn 0.99154979 -0.0917305648 -0.0917305872
vn 0.931637168 -0.256955415 -0.256955415
vn 0.931637228 -0.256955415 0.256955415
vn 0.99154979 -0.0917305648 0.0917305872
vn 0.99154979 -0.0917305648 0.0917305872
vn 0.931637228 -0.256955415 0.256955415
vn 0.931637168 0.256955415 0.256955415
vn 0.99154979 0.0917305648 0.0917305872
vn 0.99154979 0.0917305648 0.0917305872
vn 0.931637168 0.256955415 0.256955415
vn 0.931637168 0.256955415 -0.256955415
vn 0.99154979 0.0917305648 -0.0917305872
g 
f 1//1 2//2 4//3 3//4
f 1//5 5//6 6//7 2//8
f 2//9 6//10 7//11 4//12
f 4//13 7//14 8//15 3//16
f 3//17 8//18 5//19 1//20
f 5//21 9//22 10//23 6//24
f 6//25 10//26 11//27 7//28
f 7//29 11//30 12//31 8//32
f 8//33 12//34 9//35 5//36
f 9//41 13//42 14//43 10//44
f 10//45 14//46 15//47 11//48
f 11//49 15//50 16//51 12//52
f 12//53 16//54 13//55 9//56
f 17//57 18//58 20//59 19//60
f 17//61 21//62 22//63 18//64
f 18//65 22//66 23//67 20//68
f 20//69 23//70 24//71 19//72
f 19//73 24//74 21//75 17//76
f 21//77 25//78 26//79 22//80
f 22//81 26//82 27//83 23//84
f 23//85 27//86 28//87 24//88
f 24//89 28//90 25//91 21//92
f 25//97 29//98 30//99 26//100
f 26//101 30//102 31//103 27//104
f 27//105 31//106 32//107 28//108
f 28//109 32//110 29//111 25//112
g extrudeFront
f 13//37 16//38 15//39 14//40
f 29//93 32//94 31//95 30//96
