# File exported by Houdini 19.0.589 (www.sidefx.com)
# 44 points
# 264 vertices
# 88 primitives
# Bounds: [-0.649999976, 0, -0.5] to [0.649999976, 0.529999971, 0.5]
g 
v 0.649999976 0 0.5 1 0.809350014 0.720999956
v -0.649999976 0 0.5 1 0.809350014 0.720999956
v -0.649999976 0.00999999978 0.5 1 0.809350014 0.720999956
v 0.649999976 0.00999999978 0.5 1 0.809350014 0.720999956
v -0.649999976 0 -0.5 1 0.809350014 0.720999956
v 0.649999976 0 -0.5 1 0.809350014 0.720999956
v 0.649999976 0.00999999978 -0.5 1 0.809350014 0.720999956
v -0.649999976 0.00999999978 -0.5 1 0.809350014 0.720999956
v 0.649999976 0.50999999 -0.5 1 0.809350014 0.720999956
v -0.649999976 0.50999999 -0.5 1 0.809350014 0.720999956
v -0.649999976 0.50999999 0.5 1 0.809350014 0.720999956
v -0.649999976 0.529999971 -0.5 1 0.809350014 0.720999956
v 0.649999976 0.529999971 -0.5 1 0.809350014 0.720999956
v 0.629999995 0.529999971 -0.479999989 1 0.809350014 0.720999956
v -0.629999995 0.529999971 -0.479999989 1 0.809350014 0.720999956
v 0.649999976 0.529999971 0.5 1 0.809350014 0.720999956
v 0.629999995 0.529999971 0.479999989 1 0.809350014 0.720999956
v -0.649999976 0.529999971 0.5 1 0.809350014 0.720999956
v -0.629999995 0.529999971 0.479999989 1 0.809350014 0.720999956
v 0.649999976 0.50999999 0.5 1 0.809350014 0.720999956
v 0.649999976 0.409000039 0.323527098 1 0.928506255 0.895374894
v 0.649999976 0.0109999999 0.323527098 0.99999994 0.928506374 0.895374894
v 0.649999976 0.0109999999 0.0932690054 1 0.923740089 0.888399899
v 0.649999976 0.409000039 0.0932690054 1 0.904675007 0.860499978
v 0.22283107 0.409000039 0.5 1 0.928506255 0.895375073
v -0.00742700696 0.409000039 0.5 1 0.923740029 0.888400197
v -0.00742700696 0.0109999999 0.5 1 0.904675007 0.860500097
v 0.22283107 0.0109999999 0.5 1 0.936450005 0.906999886
v -0.629999995 0.00999999978 -0.479999989 0.36500001 0.256777495 0.148555011
v 0.629999995 0.00999999978 -0.479999989 0.36500001 0.256777495 0.148555011
v 0.629999995 0.00999999978 0.479999989 0.36500001 0.256777495 0.148555011
v -0.629999995 0.00999999978 0.479999989 0.36500001 0.256777495 0.148555011
v -0.629999995 0.50999999 -0.479999989 1 0.809350014 0.720999956
v 0.629999995 0.50999999 -0.479999989 1 0.809350014 0.720999956
v -0.629999995 0.50999999 0.479999989 1 0.809350014 0.720999956
v 0.629999995 0.50999999 0.479999989 1 0.809350014 0.720999956
v 0.22283107 0.0109999999 0.479999989 0.728401482 0.681949914 0.635585606
v -0.00742700696 0.0109999999 0.479999989 0.746507823 0.703153253 0.659880042
v -0.00742700696 0.409000039 0.479999989 0.935864925 0.848865032 0.802683353
v 0.22283107 0.409000039 0.479999989 0.951898754 0.886648953 0.852012336
v 0.629999995 0.0109999999 0.323527098 0.762351274 0.721705914 0.681137502
v 0.629999995 0.409000039 0.323527098 0.951898694 0.886648774 0.852012336
v 0.629999995 0.409000039 0.0932690054 0.948692143 0.879092097 0.842146516
v 0.629999995 0.0109999999 0.0932690054 0.683135033 0.628941298 0.574849844
vn 0 0 1
vn 0 0 0.99999994
vn 0 0 1
vn 0 0 -1
vn 0 0 -1
vn 0 0 -1
vn 0 -1 0
vn 0 -1 0
vn 0 -1 0
vn 1 0 0
vn 1 0 0
vn 1 0 0
vn -1 0 0
vn -1 0 0
vn -1 0 0
vn 0 0 -1
vn 0 0 -1
vn 0 0 -1
vn -1 0 0
vn -1 0 0
vn -1 0 0
vn 0 1 0
vn 0 1 0
vn 0 1 0
vn 0 1 0
vn 0 1 0
vn 0 1 0
vn 0 1 0
vn 0 1 0
vn 0 1 0
vn 0 1 0
vn 0 1 0
vn 0 1 0
vn 0 0 -1
vn 0 0 -1
vn 0 0 -1
vn 1 0 0
vn 1 0 0
vn 1 0 0
vn 0 0 1
vn 0 0 1
vn 0 0 1
vn -1 0 0
vn -1 0 0
vn -1 0 0
vn 0 1 0
vn 0 1 0
vn 0 1 0
vn 1 0 0
vn 1 0 0
vn 1 0 0
vn 0 0 1
vn 0 0 1
vn 0 0 1
vn 0 1 0
vn 0 1 0
vn 0 1 0
vn 0 0 1
vn 0 0 1
vn 0 0 1
vn 1 0 0
vn 1 0 0
vn 1 0 0
vn 0 -1 0
vn 0 -1 0
vn 0 -1 0
vn 0 0 -1
vn 0 0 -0.99999994
vn 0 0 -0.99999994
vn -1 0 0
vn -1 0 0
vn -1 0 0
vn 0 -1 0
vn 0 -1 0
vn 0 -1 0
vn 0 1 0
vn 0 1 0
vn 0 1 0
vn 0 0 1
vn 0 0 1
vn 0 0 1
vn 0 0 -1
vn 0 0 -1
vn 0 0 -1
vn 0 -1 0
vn 0 -1 0
vn 0 -1 0
vn 0 1 0
vn 0 1 0
vn 0 1 0
vn -1 0 0
vn -1 0 0
vn -1 0 0
vn 1 0 0
vn 1 0 0
vn 1 0 0
vn 1 0 0
vn 1 0 0
vn 1 0 0
vn -1 0 0
vn -1 0 0
vn -1 0 0
vn 0 1 0
vn 0 1 0
vn 0 1 0
vn 0 -1 0
vn 0 -1 0
vn 0 -1 0
vn 0 0 -1
vn 0 0 -1
vn 0 0 -1
vn 0 0 1
vn 0 0 1
vn 0 0 1
vn 0 1 0
vn 0 1 0
vn 0 1 0
vn 0 -1 0
vn 0 -1 0
vn 0 -1 0
vn -1 0 0
vn -1 0 0
vn -1 0 0
vn -1 0 0
vn -1 0 0
vn -1 0 0
vn -1 0 0
vn -1 0 0
vn -0.99999994 0 0
vn -0.99999994 0 0
vn -1 0 0
vn -1 0 0
vn -0.99999994 0 0
vn -1 0 0
vn -1 0 0
vn -1 0 0
vn -1 0 0
vn -1 0 0
vn -1 0 0
vn -1 0 0
vn -1 0 0
vn 0 0 -0.99999994
vn 0 0 -1
vn 0 0 -1
vn 0 0 -0.99999994
vn 0 0 -1
vn 0 0 -1
vn 0 0 -1
vn 0 0 -1
vn 0 0 -1
vn 0 0 -1
vn 0 0 -1
vn 0 0 -1
vn 0 0 -1
vn 0 0 -1
vn 0 0 -0.99999994
vn 0 0 -1
vn 0 0 -0.99999994
vn 0 0 -1
vn 0 0 -1
vn 0 0 -0.99999994
vn 0 0 -1
vn 0 -1 0
vn 0 -1 0
vn 0 -1 0
vn 1 0 0
vn 1 0 0
vn 1 0 0
vn 0 0 1
vn 0 0 1
vn 0 0 1
vn 0 1 0
vn 0 1 0
vn 0 1 0
vn 0 0 1
vn 0 0 1
vn 0 0 1
vn 0 0 1
vn 0 0 1
vn 0 0 1
vn 0 0 1
vn 0 0 1
vn 0 0 1
vn 0 0 1
vn 0 0 1
vn 0 0 1
vn 0 0 1
vn 0 0 1
vn 0 0 1
vn 0 0 1
vn 0 0 1
vn 0 0 0.99999994
vn 0 0 1
vn 0 0 0.99999994
vn 0 0 1
vn 1 0 0
vn 1 0 0
vn 1 0 0
vn 1 0 0
vn 1 0 0
vn 1 0 0
vn 1 0 0
vn 1 0 0
vn 1 0 0
vn 1 0 0
vn 1 0 0
vn 1 0 0
vn 1 0 0
vn 1 0 0
vn 1 0 0
vn 1 0 0
vn 1 0 0
vn 1 0 0
vn 1 0 0
vn 1 0 0
vn 1 0 0
vn 0 1 0
vn 0 1 0
vn 0 1 0
vn -1 0 0
vn -1 0 0
vn -1 0 0
vn 0 0 1
vn 0 0 1
vn 0 0 1
vn 1 0 0
vn 1 0 0
vn 1 0 0
vn 0 0 -1
vn 0 0 -1
vn 0 0 -1
vn 0 1 0
vn 0 1 0
vn 0 1 0
vn 0 1 0
vn 0 1 0
vn 0 1 0
vn 0 1 0
vn 0 1 0
vn 0 1 0
vn 0 1 0
vn 0 1 0
vn 0 1 0
vn -1 0 0
vn -1 0 0
vn -1 0 0
vn 0 0 -1
vn 0 0 -1
vn 0 0 -1
vn -1 0 0
vn -1 0 0
vn -1 0 0
vn 1 0 0
vn 1 0 0
vn 1 0 0
vn 0 -1 0
vn 0 -1 0
vn 0 -1 0
vn 0 0 -1
vn 0 0 -1
vn 0 0 -1
vn 0 0 0.99999994
vn 0 0 1
vn 0 0 1
g 
f 1//1 3//2 2//3
f 5//4 7//5 6//6
f 6//7 2//8 5//9
f 6//10 4//11 1//12
f 2//13 8//14 5//15
f 42//73 24//74 21//75
f 22//76 44//77 41//78
f 44//79 24//80 43//81
f 21//82 41//83 42//84
f 39//85 25//86 26//87
f 27//88 37//89 38//90
f 28//91 40//92 37//93
f 26//94 38//95 39//96
f 38//97 26//98 27//99
f 40//100 28//101 25//102
f 37//103 27//104 28//105
f 25//106 39//107 40//108
f 41//109 21//110 22//111
f 24//112 44//113 23//114
f 44//115 22//116 23//117
f 24//118 42//119 43//120
f 8//250 2//251 3//252
f 4//253 6//254 7//255
f 2//256 6//257 1//258
f 7//259 5//260 8//261
f 3//262 1//263 4//264
g extrudeSide
f 8//16 9//17 7//18
f 3//19 10//20 8//21
f 10//34 13//35 9//36
f 9//37 16//38 20//39
f 20//40 18//41 11//42
f 11//43 12//44 10//45
f 4//49 23//50 22//51
f 27//52 4//53 28//54
f 30//58 33//59 29//60
f 29//61 35//62 32//63
f 34//64 35//65 33//66
f 37//67 36//68 31//69
f 36//70 41//71 31//72
f 30//121 31//122 41//123
f 30//124 41//125 44//126
f 30//127 44//128 34//129
f 34//130 44//131 43//132
f 34//133 43//134 36//135
f 36//136 43//137 42//138
f 36//139 42//140 41//141
f 31//142 32//143 38//144
f 31//145 38//146 37//147
f 38//148 32//149 39//150
f 39//151 32//152 35//153
f 39//154 35//155 36//156
f 39//157 36//158 40//159
f 40//160 36//161 37//162
f 35//163 34//164 36//165
f 35//166 29//167 33//168
f 33//169 30//170 34//171
f 25//175 28//176 4//177
f 25//178 4//179 20//180
f 25//181 20//182 26//183
f 26//184 20//185 11//186
f 26//187 11//188 27//189
f 27//190 11//191 3//192
f 27//193 3//194 4//195
f 21//196 24//197 9//198
f 21//199 9//200 20//201
f 21//202 20//203 22//204
f 9//205 24//206 23//207
f 22//208 20//209 4//210
f 9//211 23//212 7//213
f 7//214 23//215 4//216
f 12//220 11//221 18//222
f 18//223 20//224 16//225
f 16//226 9//227 13//228
f 13//229 10//230 12//231
f 10//244 3//245 11//246
f 9//247 8//248 10//249
g extrudeFront extrudeSide
f 12//22 14//23 13//24
f 13//25 17//26 16//27
f 16//28 19//29 18//30
f 18//31 15//32 12//33
f 15//46 17//47 14//48
f 17//217 15//218 19//219
f 15//232 18//233 19//234
f 19//235 16//236 17//237
f 17//238 13//239 14//240
f 14//241 12//242 15//243
g floor
f 29//55 31//56 30//57
f 31//172 29//173 32//174
