{
  "accessors": [
    {
      "bufferView": 2,
      "componentType": 5126,
      "count": 1383,
      "max": [
        3.7346689701080322,
        3.6843760013580322,
        3.2807350158691406
      ],
      "min": [
        -4.32281494140625,
        -4.157445907592773,
        -3.3741519451141357
      ],
      "type": "VEC3"
    },
    {
      "bufferView": 2,
      "byteOffset": 16596,
      "componentType": 5126,
      "count": 1383,
      "max": [
        0.9992903470993042,
        0.9999920129776001,
        0.9995715022087097
      ],
      "min": [
        -0.9982098937034607,
        -0.9999445080757141,
        -0.9999827742576599
      ],
      "type": "VEC3"
    },
    {
      "bufferView": 3,
      "componentType": 5126,
      "count": 1383,
      "max": [
        0.9948397874832153,
        0.6094481945037842,
        0.8482679128646851,
        1.0
      ],
      "min": [
        -0.9769542813301086,
        -0.8027873635292053,
        -0.9999801516532898,
        1.0
      ],
      "type": "VEC4"
    },
    {
      "bufferView": 1,
      "componentType": 5126,
      "count": 1383,
      "max": [
        0.9921749830245972,
        0.9926739931106567
      ],
      "min": [
        0.00817899964749813,
        0.007325999904423952
      ],
      "type": "VEC2"
    },
    {
      "bufferView": 0,
      "componentType": 5125,
      "count": 7716,
      "type": "SCALAR"
    }
  ],
  "asset": {
    "extras": {
      "author": "Jackster142 (https://sketchfab.com/Jackster142)",
      "license": "CC-BY-4.0 (http://creativecommons.org/licenses/by/4.0/)",
      "source": "https://sketchfab.com/3d-models/log-new-a331caae932744539edb661935ab121c",
      "title": "Log New"
    },
    "generator": "Sketchfab-12.67.0",
    "version": "2.0"
  },
  "bufferViews": [
    {
      "buffer": 0,
      "byteLength": 30864,
      "name": "floatBufferViews",
      "target": 34963
    },
    {
      "buffer": 0,
      "byteLength": 11064,
      "byteOffset": 30864,
      "byteStride": 8,
      "name": "floatBufferViews",
      "target": 34962
    },
    {
      "buffer": 0,
      "byteLength": 33192,
      "byteOffset": 41928,
      "byteStride": 12,
      "name": "floatBufferViews",
      "target": 34962
    },
    {
      "buffer": 0,
      "byteLength": 22128,
      "byteOffset": 75120,
      "byteStride": 16,
      "name": "floatBufferViews",
      "target": 34962
    }
  ],
  "buffers": [
    {
      "byteLength": 97248,
      "uri": "scene.bin"
    }
  ],
  "images": [
    {
      "uri": "textures/Log_FinalLog_Final_baseColor.png"
    },
    {
      "uri": "textures/Log_FinalLog_Final_metallicRoughness.png"
    },
    {
      "uri": "textures/Log_FinalLog_Final_normal.png"
    }
  ],
  "materials": [
    {
      "doubleSided": true,
      "name": "Log_FinalLog_Final",
      "normalTexture": {
        "index": 2
      },
      "pbrMetallicRoughness": {
        "baseColorTexture": {
          "index": 0
        },
        "metallicFactor": 0.0,
        "metallicRoughnessTexture": {
          "index": 1
        }
      }
    }
  ],
  "meshes": [
    {
      "name": "Object_0",
      "primitives": [
        {
          "attributes": {
            "NORMAL": 1,
            "POSITION": 0,
            "TANGENT": 2,
            "TEXCOORD_0": 3
          },
          "indices": 4,
          "material": 0,
          "mode": 4
        }
      ]
    }
  ],
  "nodes": [
    {
      "children": [
        1
      ],
      "matrix": [
        1.0,
        0.0,
        0.0,
        0.0,
        0.0,
        2.220446049250313e-16,
        -1.0,
        0.0,
        0.0,
        1.0,
        2.220446049250313e-16,
        0.0,
        0.0,
        0.0,
        0.0,
        1.0
      ],
      "name": "Sketchfab_model"
    },
    {
      "children": [
        2
      ],
      "name": "2a0a32d0bd1c4bfe96b947d9d50e1d23.obj.cleaner.materialmerger.gles"
    },
    {
      "mesh": 0,
      "name": "Object_2"
    }
  ],
  "samplers": [
    {
      "magFilter": 9729,
      "minFilter": 9987,
      "wrapS": 10497,
      "wrapT": 10497
    }
  ],
  "scene": 0,
  "scenes": [
    {
      "name": "Sketchfab_Scene",
      "nodes": [
        0
      ]
    }
  ],
  "textures": [
    {
      "sampler": 0,
      "source": 0
    },
    {
      "sampler": 0,
      "source": 1
    },
    {
      "sampler": 0,
      "source": 2
    }
  ]
}
