{
    "asset": {
        "generator": "FBX2glTF v0.13.0",
        "version": "2.0"
    },
    "scene": 0,
    "buffers": [
        {
            "byteLength": 329688,
            "uri": "buffer.bin"
        }
    ],
    "bufferViews": [
        {
            "buffer": 0,
            "byteLength": 1200,
            "byteOffset": 0
        },
        {
            "buffer": 0,
            "byteLength": 3600,
            "byteOffset": 1200
        },
        {
            "buffer": 0,
            "byteLength": 4800,
            "byteOffset": 4800
        },
        {
            "buffer": 0,
            "byteLength": 3600,
            "byteOffset": 9600
        },
        {
            "buffer": 0,
            "byteLength": 4800,
            "byteOffset": 13200
        },
        {
            "buffer": 0,
            "byteLength": 71928,
            "byteOffset": 18000,
            "target": 34963
        },
        {
            "buffer": 0,
            "byteLength": 71928,
            "byteOffset": 89928,
            "target": 34962
        },
        {
            "buffer": 0,
            "byteLength": 71928,
            "byteOffset": 161856,
            "target": 34962
        },
        {
            "buffer": 0,
            "byteLength": 95904,
            "byteOffset": 233784,
            "target": 34962
        }
    ],
    "scenes": [
        {
            "name": "Root Scene",
            "nodes": [
                0
            ]
        }
    ],
    "accessors": [
        {
            "componentType": 5126,
            "type": "SCALAR",
            "count": 300,
            "bufferView": 0,
            "byteOffset": 0,
            "min": [
                0.0
            ],
            "max": [
                9.96666622161865
            ]
        },
        {
            "componentType": 5126,
            "type": "VEC3",
            "count": 300,
            "bufferView": 1,
            "byteOffset": 0
        },
        {
            "componentType": 5126,
            "type": "VEC4",
            "count": 300,
            "bufferView": 2,
            "byteOffset": 0
        },
        {
            "componentType": 5126,
            "type": "VEC3",
            "count": 300,
            "bufferView": 3,
            "byteOffset": 0
        },
        {
            "componentType": 5126,
            "type": "VEC4",
            "count": 300,
            "bufferView": 4,
            "byteOffset": 0
        },
        {
            "componentType": 5123,
            "type": "SCALAR",
            "count": 35964,
            "bufferView": 5,
            "byteOffset": 0
        },
        {
            "componentType": 5126,
            "type": "VEC3",
            "count": 5994,
            "bufferView": 6,
            "byteOffset": 0,
            "min": [
                -0.000752677966374904,
                -0.00527470977976918,
                -0.00525108492001891
            ],
            "max": [
                0.000749635510146618,
                0.00846019107848406,
                0.00522799883037806
            ]
        },
        {
            "componentType": 5126,
            "type": "VEC3",
            "count": 5994,
            "bufferView": 7,
            "byteOffset": 0
        },
        {
            "componentType": 5126,
            "type": "VEC4",
            "count": 5994,
            "bufferView": 8,
            "byteOffset": 0
        }
    ],
    "samplers": [
        {}
    ],
    "materials": [
        {
            "name": "DefaultMaterial",
            "alphaMode": "OPAQUE",
            "doubleSided": false,
            "extras": {
                "fromFBX": {
                    "shadingModel": "Lambert",
                    "isTruePBR": false
                }
            },
            "pbrMetallicRoughness": {
                "baseColorFactor": [
                    0.5,
                    0.5,
                    0.5,
                    1.0
                ],
                "metallicFactor": 0.200000002980232,
                "roughnessFactor": 0.800000011920929
            }
        }
    ],
    "meshes": [
        {
            "name": "box2",
            "primitives": [
                {
                    "material": 0,
                    "mode": 4,
                    "attributes": {
                        "COLOR_0": 8,
                        "NORMAL": 7,
                        "POSITION": 6
                    },
                    "indices": 5
                }
            ]
        }
    ],
    "animations": [
        {
            "name": "Main",
            "channels": [
                {
                    "sampler": 0,
                    "target": {
                        "node": 2,
                        "path": "translation"
                    }
                },
                {
                    "sampler": 1,
                    "target": {
                        "node": 2,
                        "path": "rotation"
                    }
                },
                {
                    "sampler": 2,
                    "target": {
                        "node": 3,
                        "path": "translation"
                    }
                },
                {
                    "sampler": 3,
                    "target": {
                        "node": 3,
                        "path": "rotation"
                    }
                }
            ],
            "samplers": [
                {
                    "input": 0,
                    "interpolation": "LINEAR",
                    "output": 1
                },
                {
                    "input": 0,
                    "interpolation": "LINEAR",
                    "output": 2
                },
                {
                    "input": 0,
                    "interpolation": "LINEAR",
                    "output": 3
                },
                {
                    "input": 0,
                    "interpolation": "LINEAR",
                    "output": 4
                }
            ]
        }
    ],
    "nodes": [
        {
            "name": "RootNode",
            "translation": [
                0.0,
                0.0,
                0.0
            ],
            "rotation": [
                0.0,
                0.0,
                0.0,
                1.0
            ],
            "scale": [
                1.0,
                1.0,
                1.0
            ],
            "children": [
                1
            ]
        },
        {
            "name": "subnet1",
            "translation": [
                0.0,
                0.0,
                0.0
            ],
            "rotation": [
                0.0,
                0.0,
                0.0,
                1.0
            ],
            "scale": [
                1.0,
                1.0,
                1.0
            ],
            "children": [
                2
            ]
        },
        {
            "name": "subnet2",
            "translation": [
                0.0,
                0.0,
                0.0
            ],
            "rotation": [
                0.0,
                0.0,
                0.0,
                1.0
            ],
            "scale": [
                1.0,
                1.0,
                1.0
            ],
            "children": [
                3
            ]
        },
        {
            "name": "subnet1",
            "translation": [
                -0.000540498818736523,
                0.00144921557512134,
                0.00204930105246603
            ],
            "rotation": [
                0.172340780496597,
                0.0855158567428589,
                -0.0150201981887221,
                0.981203377246857
            ],
            "scale": [
                1.0,
                1.0,
                1.0
            ],
            "children": [
                4
            ]
        },
        {
            "name": "box2",
            "translation": [
                0.0,
                0.0,
                0.0
            ],
            "rotation": [
                2.77555756156289e-17,
                1.38777878078145e-17,
                -3.46944695195361e-18,
                1.0
            ],
            "scale": [
                1.0,
                1.0,
                1.0
            ],
            "mesh": 0
        }
    ]
}